<svg xmlns="http://www.w3.org/2000/svg" xml:space="preserve" id="Layer_1" x="0" y="0" style="enable-background:new 0 0 25 19" version="1.1" viewBox="0 0 25 19"><style>.st0{fill:#4f5255}</style><switch><g><path d="M23.5 3h-22C.67 3 0 2.33 0 1.5S.67 0 1.5 0h22c.83 0 1.5.67 1.5 1.5S24.33 3 23.5 3zM23.5 11h-22C.67 11 0 10.33 0 9.5S.67 8 1.5 8h22c.83 0 1.5.67 1.5 1.5s-.67 1.5-1.5 1.5zM23.5 19h-22C.67 19 0 18.33 0 17.5S.67 16 1.5 16h22c.83 0 1.5.67 1.5 1.5s-.67 1.5-1.5 1.5z" class="st0"/></g></switch></svg>