<svg xmlns="http://www.w3.org/2000/svg" xml:space="preserve" id="Layer_1" x="0" y="0" style="enable-background:new 0 0 12.48 5" version="1.1" viewBox="0 0 12.48 5"><style>.st0{fill:#fff}</style><switch><g><path d="M4.09 2.25 2.25 4.09c-.09.09-.24.09-.34 0L.07 2.25a.248.248 0 0 1 0-.34L1.91.07c.09-.09.24-.09.34 0l1.84 1.84c.1.1.1.25 0 .34z" class="st0"/><path d="M3.89 2.23 2.23 3.89c-.08.08-.22.08-.3 0L.27 2.23a.217.217 0 0 1 0-.3L1.93.27c.08-.08.22-.08.3 0l1.66 1.66a.2.2 0 0 1 0 .3z" style="fill:#1d1d1b"/><path d="M1.41 1.35s.11.08.18.09.11.02.11.02-.04.07-.08.09c0 0 .15-.03.18-.05.03-.02.08-.1.08-.15 0 0 .07.09.08.19 0 0 .02-.16.01-.23 0-.06-.01-.06-.01-.06s.08 0 .11.01h.11s-.02.06-.02.16c0 .11.05.27.07.3.02.03.03.04.03.05-.01.01-.06 0-.09.04-.04.05-.07.07-.1.07s-.1-.06-.12-.08c-.02-.03-.06-.02-.06-.03-.01-.01.02-.04.02-.07.01-.03.01-.06.01-.06s-.16.16-.28.16c0 0-.12-.12-.15-.14 0 .01-.08-.25-.08-.31zM2.27 1.4s-.01.08-.01.11.16.19.22.19.18-.12.19-.14a.64.64 0 0 0 .06-.16c0-.01-.01-.05-.01-.05s-.13.09-.19.1c-.05.01-.11.01-.11.01s.04.07.09.09c0 0-.15-.03-.17-.05-.02-.01-.07-.1-.07-.1zM1.48 2.13s.16-.03.22-.09c.06-.07.06-.09.15-.1.09-.01.22.08.22.08s.09-.11.2-.08c.13.01.21.13.29.15.08.02.12.02.12.02s-.12.09-.26.09-.34-.15-.34-.15-.15.14-.3.15c-.14 0-.3-.07-.3-.07z" class="st0"/><path d="M1.16 1.52s-.04.21-.14.3-.17.35-.02.52c0 0 .04-.11.06-.13 0 0 .01.14.05.26.05.11.15.13.16.25.02.11.03.18.03.18s.1-.07.11-.17c0 0 .12.22.22.29.08.07.17.08.17.08s-.05-.09-.06-.13c0 0 .13.07.15.16.02.09-.04.2-.04.2s.24-.08.32-.27c.08-.19-.01-.43-.01-.43s.14.12.12.26c-.02.14-.04.18-.04.18s.18-.21.21-.42c.03-.2-.06-.27-.11-.32-.05-.04-.12-.07-.12-.07s.06.11.06.16c0 0-.13-.08-.23-.07-.11.01-.19.07-.19.07s.02-.1.09-.14c0 0-.16.02-.22.13-.05.11.08.38.08.38s-.23-.07-.26-.25c-.04-.18-.06-.3-.06-.3s-.06.13-.05.19c0 0-.1-.12-.11-.24-.02-.11.08-.32.08-.32s-.18.05-.22.23c0 0-.04-.14-.01-.24.03-.09.03-.3-.02-.34zM2.4 3.04s.17-.16.26-.33c.1-.17.11-.2.11-.2s0 .31.06.37c0 0-.11-.07-.12-.12.01.01-.09.21-.31.28zM2.88 2.6c-.01 0 .12-.19.14-.35.03-.16.02-.26.02-.26s.11.11.13.16c0 0-.04-.18-.13-.33-.09-.15-.05-.3-.05-.3s.03.12.12.24.18.25.13.4c-.05.15-.1.19-.1.19s-.03-.12-.07-.15c0 0 .04.22-.19.4zM5.47 3.86c-.08.04-.16.07-.24.11-.12.05-.2.08-.23.08-.04 0-.07-.02-.1-.07-.07-.11-.14-.37-.2-.79-.07.06-.12.15-.16.26-.03.1-.05.2-.05.3 0 .19.07.29.2.29-.13.05-.23.07-.3.07-.08 0-.14-.03-.17-.09-.06-.08-.11-.22-.16-.4-.03-.15-.07-.29-.09-.44-.06.09-.12.18-.16.28a.84.84 0 0 0-.08.3c0 .15.07.24.22.27v.01c-.13.06-.23.08-.31.08-.11 0-.16-.06-.16-.17 0-.14.09-.33.26-.57.16-.22.3-.37.44-.47.02.11.04.22.07.33.03.13.06.23.1.32.07-.12.15-.24.24-.35.07-.09.17-.18.3-.3.03.12.05.24.08.36.04.17.1.3.15.39.08.14.17.2.29.2h.06z" class="st0"/><path d="M6.36 3.46c0 .17-.07.31-.21.43-.14.11-.29.16-.46.16-.14 0-.25-.04-.35-.12a.408.408 0 0 1-.16-.33c0-.17.07-.31.21-.43.13-.11.29-.16.46-.16.14 0 .25.04.35.12.11.09.16.2.16.33zm-.27.14c0-.11-.03-.21-.09-.31-.06-.11-.15-.17-.25-.17-.09 0-.16.04-.21.13a.41.41 0 0 0-.07.25c0 .11.03.21.09.3.07.11.15.16.25.16.09 0 .16-.04.21-.12.05-.07.07-.15.07-.24zM6.31 4.05c0-.11.11-.3.32-.57.1-.13.25-.31.46-.53.03.13.07.25.11.38.06.18.12.31.19.41.09.13.19.19.3.19.02 0 .05 0 .07-.01v.01c-.08.04-.16.08-.23.12-.12.05-.2.08-.23.08-.04 0-.08-.03-.11-.08-.08-.12-.18-.38-.28-.79-.1.11-.18.2-.22.26-.08.12-.12.22-.12.31 0 .14.08.22.23.25-.15.05-.27.08-.36.08-.09 0-.13-.03-.13-.11z" class="st0"/><path d="M8.87 3.56c0 .16-.08.3-.24.43-.14.11-.3.17-.47.17-.09 0-.17-.02-.26-.05-.06 0-.11.01-.14.02.03-.13.04-.28.04-.47 0-.15-.01-.27-.02-.37-.01-.05-.02-.1-.05-.13-.03-.03-.06-.07-.1-.1.13-.04.27-.06.43-.08v.07l.01.46c.36-.05.58-.09.66-.1.07-.02.11-.01.12.02.02.02.02.07.02.13zm-.32.05c0-.02-.01-.04-.03-.04h-.05c-.07 0-.21.02-.41.05 0 .16 0 .31.01.44a.466.466 0 0 0 .45-.34c.02-.05.03-.09.03-.11z" class="st0"/><path d="M8.76 2.99c.03-.04.24-.01.61.07v-.08l.25.03c0 .28.01.5.01.65 0 .18.01.34.04.46-.1-.03-.2-.07-.31-.11 0-.26.01-.4.01-.4-.16-.03-.3-.08-.42-.14-.16-.09-.24-.2-.24-.32 0-.07.01-.12.05-.16zm.4.43c.06.06.13.1.21.12l.01-.4c-.13-.02-.2-.03-.23-.03-.07 0-.1.04-.1.11s.03.14.11.2zm1.13-.27c0 .12-.08.23-.24.32-.13.06-.26.11-.42.14 0 0-.09.02-.26.05 0-.15 0-.29.01-.44.01-.14.09-.2.25-.16.38-.08.58-.1.61-.07.03.04.05.09.05.16zm-.34.07c0-.07-.03-.11-.1-.11-.03 0-.1.01-.22.03l.01.4c.07-.02.14-.06.21-.12.06-.06.1-.13.1-.2zM11.75 3.88c-.08.04-.16.08-.25.12-.13.06-.2.09-.24.09-.06 0-.13-.07-.19-.22-.02-.06-.06-.16-.1-.31-.15.04-.29.08-.42.13-.01.05-.02.09-.02.13 0 .14.08.23.24.26-.14.05-.24.08-.32.08-.11 0-.16-.05-.16-.14 0-.09.05-.21.14-.37a.591.591 0 0 1-.17-.13c.08-.01.17-.02.27-.03.06-.09.14-.19.25-.3.09-.09.18-.18.28-.27.01.08.04.17.07.26.03.1.06.19.09.26.06 0 .19-.01.37-.01-.08.01-.19.04-.35.07.11.26.25.39.41.39.03.01.07 0 .1-.01zm-.81-.42c-.03-.1-.05-.2-.08-.3-.09.09-.16.2-.22.32.07-.01.17-.02.3-.02z" class="st0"/><path d="M12.48 3.15c0 .12-.08.23-.24.32-.12.06-.26.11-.41.14 0 0 0 .14.01.4-.11.04-.21.08-.31.11.03-.13.04-.28.04-.46 0-.15-.01-.27-.02-.37a.295.295 0 0 0-.05-.13c-.03-.04-.06-.07-.09-.11.12-.03.26-.05.42-.07v.08c.38-.08.58-.1.61-.07.03.04.04.09.04.16zm-.34.07c0-.07-.03-.11-.1-.11-.03 0-.1.01-.22.03l.01.4c.07-.02.14-.06.21-.12.07-.06.1-.13.1-.2zM3.95 4.54V5h-.04v-.37l-.18.31H3.7l-.18-.3V5h-.04v-.46h.04l.2.34.2-.34h.03zM4.18 4.97c-.03-.02-.06-.05-.08-.08s-.03-.08-.03-.12c0-.04.01-.08.03-.12.02-.04.05-.06.09-.08.04-.02.08-.03.12-.03.05 0 .09.01.12.03.04.02.06.05.09.08.02.04.03.07.03.12 0 .04-.01.08-.03.12-.03.03-.06.06-.09.08a.277.277 0 0 1-.25 0zm.22-.04c.03-.02.05-.04.07-.07.02-.02.03-.06.03-.09 0-.04-.01-.07-.02-.1a.5.5 0 0 0-.08-.07c-.03-.02-.06-.02-.1-.02s-.06.01-.09.02c-.03.02-.05.04-.07.07-.02.03-.03.06-.03.1 0 .04.01.07.03.1.02.03.04.05.07.07.03.02.06.02.1.02s.06-.01.09-.03zM5 4.54V5h-.05v-.42h-.21l-.01.15c0 .06-.01.11-.02.15 0 .04-.02.07-.03.09a.09.09 0 0 1-.07.03h-.03v-.04h.02c.02 0 .03-.01.05-.02.01-.02.02-.04.03-.07.01-.03.01-.07.01-.13l.01-.19H5zM5.23 4.97c-.03-.02-.06-.05-.08-.08s-.03-.08-.03-.12c0-.04.01-.08.03-.12.02-.04.05-.06.08-.08.04-.02.08-.03.12-.03.05 0 .09.01.12.03.04.02.06.05.09.08.02.04.03.07.03.12 0 .04-.01.08-.03.12-.02.03-.05.06-.08.08a.277.277 0 0 1-.25 0zm.22-.04c.03-.01.05-.04.07-.07.02-.03.02-.06.02-.1 0-.04-.01-.07-.02-.1a.435.435 0 0 0-.07-.06c-.03-.02-.06-.02-.1-.02s-.06.01-.09.02c-.03.02-.06.04-.07.07s-.03.06-.03.1c0 .04.01.07.03.1.01.02.04.05.07.06.03.02.06.02.1.02s.06 0 .09-.02zM6.02 4.54V5h-.05v-.19c-.05.02-.1.03-.14.03-.05 0-.09-.01-.12-.04a.143.143 0 0 1-.05-.11v-.15h.05v.14c0 .04.01.06.03.08.02.03.05.04.09.04.05 0 .09-.01.14-.03v-.23h.05zM6.55 4.54V5h-.04v-.21h-.29V5h-.05v-.46h.05v.2h.28v-.2h.05zM6.71 4.54h.05V5h-.05v-.46zM7.4 4.54V5h-.05v-.19c-.05.02-.1.03-.14.03-.05 0-.09-.01-.12-.04-.04-.03-.05-.06-.05-.11v-.15h.05v.14c0 .04.01.06.03.08.02.03.05.04.09.04.05 0 .09-.01.14-.03v-.23h.05zM7.84 4.87h-.25L7.54 5h-.05l.21-.45h.05l.2.45H7.9l-.06-.13zm-.01-.04-.11-.24-.11.24h.22zM8.34 4.58c.04.03.05.07.05.12s-.01.08-.05.11c-.03.03-.08.04-.13.04h-.13V5h-.04v-.46h.17c.05 0 .1.01.13.04zm-.03.2c.02-.02.03-.05.03-.08 0-.04-.01-.07-.04-.08-.02-.02-.06-.03-.1-.03h-.12v.23h.12c.05-.01.08-.02.11-.04zM8.49 4.54h.05v.38l.29-.38h.04V5h-.04v-.38l-.3.38h-.04v-.46z" class="st0"/></g></switch></svg>