<svg xmlns="http://www.w3.org/2000/svg" xml:space="preserve" style="enable-background:new 0 0 30 30" viewBox="0 0 30 30"><style>.st0{display:none}.st2,.st4{fill:#fff}.st4{display:inline}</style><switch><g><path id="Layer_2" d="M3.99 14.56c5.81-2.59 9.69-4.29 11.63-5.12 5.54-2.35 6.69-2.76 7.44-2.78.17 0 .53.04.77.24.2.17.26.39.28.55.03.16.06.52.03.8-.3 3.22-1.6 11.04-2.26 14.65-.28 1.53-.83 2.04-1.36 2.09-1.16.11-2.04-.78-3.16-1.53-1.76-1.18-2.75-1.9-4.45-3.05-1.97-1.32-.69-2.05.43-3.24.29-.31 5.4-5.05 5.5-5.49.01-.05.02-.25-.09-.36-.11-.11-.29-.07-.41-.04-.18.04-2.98 1.93-8.42 5.68-.79.56-1.52.83-2.16.82-.71-.02-2.08-.41-3.1-.75-1.25-.41-2.24-.63-2.15-1.34.04-.37.53-.75 1.48-1.13zm0 0" class="st2"/></g></switch></svg>