<svg xmlns="http://www.w3.org/2000/svg" xml:space="preserve" style="enable-background:new 0 0 30 30" viewBox="0 0 30 30"><style>.st0{fill:#fff}.st1{display:none}.st3{display:inline;fill:#fff}</style><switch><g><g id="Layer_1"><path d="M24.79 5.15c-.66-.61-3.34-2.56-9.31-2.58 0 0-7.04-.43-10.47 2.72-1.91 1.91-2.58 4.7-2.65 8.17-.07 3.46-.16 9.96 6.1 11.72h.01l-.01 2.69s-.04 1.09.68 1.31c.87.27 1.38-.56 2.2-1.45.45-.49 1.08-1.21 1.55-1.76 4.28.36 7.57-.46 7.94-.59.87-.28 5.76-.91 6.55-7.4.84-6.68-.39-10.92-2.59-12.83zm.73 12.36c-.67 5.42-4.64 5.76-5.37 6-.31.1-3.2.82-6.84.58 0 0-2.71 3.27-3.56 4.12-.13.13-.29.19-.39.16-.15-.04-.19-.21-.18-.46 0-.36.02-4.47.02-4.47-5.3-1.47-4.99-7-4.93-9.89.06-2.89.6-5.27 2.22-6.86 2.9-2.62 8.88-2.23 8.88-2.23 5.06.02 7.47 1.54 8.03 2.04 1.86 1.61 2.81 5.42 2.12 11.01zm0 0" class="st0"/><path d="M17.94 13.65a.34.34 0 0 1-.34-.32c-.06-1.15-.6-1.71-1.7-1.77a.335.335 0 1 1 .03-.67c1.45.08 2.26.91 2.34 2.41.01.19-.13.35-.32.36.01-.01 0-.01-.01-.01zm0 0" class="st0"/><path d="M19.67 14.23c-.19 0-.34-.16-.33-.35.03-1.15-.3-2.09-1.01-2.85-.7-.77-1.66-1.18-2.94-1.28-.19-.02-.33-.18-.31-.36.02-.19.18-.33.36-.31 1.44.1 2.57.61 3.39 1.49.82.89 1.21 2.01 1.19 3.33a.35.35 0 0 1-.35.33zm0 0" class="st0"/><path d="M21.44 14.92c-.19 0-.34-.15-.34-.33-.02-2.06-.61-3.64-1.81-4.82-1.19-1.16-2.7-1.76-4.48-1.77-.19 0-.34-.16-.34-.34 0-.19.15-.34.34-.34 1.96.02 3.62.67 4.94 1.96 1.32 1.29 2 3.07 2.02 5.29.02.2-.13.35-.33.35.01 0 .01 0 0 0zm-5.45 2.91s.47.04.73-.27l.5-.62c.24-.31.82-.51 1.39-.19.31.18.89.53 1.24.79.38.28 1.15.92 1.15.92.37.31.45.76.2 1.25v.01c-.25.45-.6.88-1.04 1.28h-.01c-.36.3-.71.47-1.05.51-.04.01-.09.01-.15.01-.15 0-.3-.02-.45-.07l-.01-.02c-.53-.15-1.42-.52-2.89-1.34-.96-.53-1.75-1.07-2.43-1.61-.36-.28-.72-.6-1.09-.97l-.04-.04-.04-.04-.04-.04-.04-.04c-.37-.37-.69-.74-.97-1.09-.54-.67-1.08-1.47-1.61-2.43-.81-1.47-1.19-2.36-1.34-2.89l-.02-.01c-.05-.15-.07-.3-.07-.45 0-.07 0-.11.01-.16.04-.35.21-.69.51-1.05v-.01c.4-.44.82-.78 1.28-1.04h.01c.48-.25.93-.17 1.25.2 0 0 .64.77.92 1.15.26.36.62.92.79 1.24.32.57.12 1.15-.19 1.39l-.62.49c-.31.26-.27.73-.27.73s.92 3.53 4.39 4.41zm0 0" class="st0"/></g></g></switch></svg>